<svg width="40" height="41" viewBox="0 0 40 41" fill="none" xmlns="http://www.w3.org/2000/svg">
<path d="M22.7 33.6001H9V17.3001C9 15.9001 10.2 14.7001 11.6 14.7001H20.1C21.5 14.7001 22.7 15.9001 22.7 17.3001V33.6001Z" fill="url(#paint0_linear_511_1662)" stroke="#2C001B" stroke-width="1.5" stroke-miterlimit="10" stroke-linecap="round" stroke-linejoin="round"/>
<path d="M22.7 19.3H17.2V28.9001H22.7V19.3Z" fill="white" stroke="#2C001B" stroke-width="1.5" stroke-miterlimit="10" stroke-linecap="round" stroke-linejoin="round"/>
<path d="M19.1001 14.7H12.6001V9.80002C14.8001 9.10002 16.9001 9.10002 19.1001 9.80002V14.7Z" stroke="#2C001B" stroke-width="1.5" stroke-miterlimit="10" stroke-linecap="round" stroke-linejoin="round"/>
<path d="M22.9 13.0999C23.5627 13.0999 24.0999 12.5627 24.0999 11.8999C24.0999 11.2372 23.5627 10.7 22.9 10.7C22.2372 10.7 21.7 11.2372 21.7 11.8999C21.7 12.5627 22.2372 13.0999 22.9 13.0999Z" fill="#2C001B"/>
<path d="M26.0001 10.8C26.6628 10.8 27.2 10.2628 27.2 9.60002C27.2 8.93728 26.6628 8.40002 26.0001 8.40002C25.3373 8.40002 24.8 8.93728 24.8 9.60002C24.8 10.2628 25.3373 10.8 26.0001 10.8Z" fill="#2C001B"/>
<path d="M26.0001 15.3C26.6628 15.3 27.2 14.7628 27.2 14.1C27.2 13.4373 26.6628 12.9 26.0001 12.9C25.3373 12.9 24.8 13.4373 24.8 14.1C24.8 14.7628 25.3373 15.3 26.0001 15.3Z" fill="#2C001B"/>
<path d="M29.0001 13.0999C29.6628 13.0999 30.2 12.5627 30.2 11.8999C30.2 11.2372 29.6628 10.7 29.0001 10.7C28.3373 10.7 27.8 11.2372 27.8 11.8999C27.8 12.5627 28.3373 13.0999 29.0001 13.0999Z" fill="#2C001B"/>
<path d="M29.0999 8.90001C29.7626 8.90001 30.2999 8.36275 30.2999 7.70001C30.2999 7.03727 29.7626 6.5 29.0999 6.5C28.4371 6.5 27.8999 7.03727 27.8999 7.70001C27.8999 8.36275 28.4371 8.90001 29.0999 8.90001Z" fill="#2C001B"/>
<path d="M29.0999 17.3C29.7626 17.3 30.2999 16.7628 30.2999 16.1C30.2999 15.4373 29.7626 14.9 29.0999 14.9C28.4371 14.9 27.8999 15.4373 27.8999 16.1C27.8999 16.7628 28.4371 17.3 29.0999 17.3Z" fill="#2C001B"/>
<defs>
<linearGradient id="paint0_linear_511_1662" x1="15.85" y1="14.7001" x2="15.85" y2="33.6001" gradientUnits="userSpaceOnUse">
<stop stop-color="white"/>
<stop offset="0.49" stop-color="#98E6F5"/>
</linearGradient>
</defs>
</svg>
