<svg width="40" height="41" viewBox="0 0 40 41" fill="none" xmlns="http://www.w3.org/2000/svg">
<path d="M11.5 27.9L11 22.2C13.6667 21.2666 20.4 19.96 26 22.2L25.5 27.9C25.3 30.8 22.8 33 19.9 33H17.1C14.2 33 11.8 30.8 11.5 27.9Z" fill="url(#paint0_linear_511_1779)"/>
<path d="M21.8 17.9H15.3C12.9 17.9 11 19.8 11 22.2L11.5 27.9C11.8 30.8 14.2 33 17.1 33H19.9C22.8 33 25.3 30.8 25.5 27.9L26 22.2C26.1 19.8 24.1 17.9 21.8 17.9Z" stroke="#2C001B" stroke-width="1.5" stroke-miterlimit="10" stroke-linecap="round" stroke-linejoin="round"/>
<path d="M18.5 24.2C22.6421 24.2 26 23.5284 26 22.7C26 21.8715 22.6421 21.2 18.5 21.2C14.3579 21.2 11 21.8715 11 22.7C11 23.5284 14.3579 24.2 18.5 24.2Z" stroke="#2C001B" stroke-width="1.5" stroke-miterlimit="10" stroke-linecap="round" stroke-linejoin="round"/>
<path d="M18.5 29V17.9" stroke="#2C001B" stroke-width="1.5" stroke-miterlimit="10" stroke-linecap="round" stroke-linejoin="round"/>
<path d="M21.0002 17.9H15.7002V13.9C15.7002 13.2 16.3002 12.6 17.0002 12.6H19.7002C20.4002 12.6 21.0002 13.2 21.0002 13.9V17.9Z" fill="white" stroke="#2C001B" stroke-width="1.5" stroke-miterlimit="10" stroke-linecap="round" stroke-linejoin="round"/>
<path d="M19.7 7.59998H17V12.5H19.7V7.59998Z" fill="white" stroke="#2C001B" stroke-width="1.5" stroke-miterlimit="10" stroke-linecap="round" stroke-linejoin="round"/>
<path d="M19.7998 9.69995H23.1998" stroke="#2C001B" stroke-width="1.5" stroke-miterlimit="10" stroke-linecap="round" stroke-linejoin="round"/>
<path d="M26.3001 11.9C28.0674 11.9 29.5001 10.915 29.5001 9.7C29.5001 8.48497 28.0674 7.5 26.3001 7.5C24.5328 7.5 23.1001 8.48497 23.1001 9.7C23.1001 10.915 24.5328 11.9 26.3001 11.9Z" fill="url(#paint1_linear_511_1779)" stroke="#2C001B" stroke-width="1.5" stroke-miterlimit="10" stroke-linecap="round" stroke-linejoin="round"/>
<defs>
<linearGradient id="paint0_linear_511_1779" x1="18.5" y1="20.9631" x2="18.5" y2="33" gradientUnits="userSpaceOnUse">
<stop stop-color="white"/>
<stop offset="0.49" stop-color="#98E6F5"/>
</linearGradient>
<linearGradient id="paint1_linear_511_1779" x1="26.3001" y1="7.5" x2="26.3001" y2="11.9" gradientUnits="userSpaceOnUse">
<stop stop-color="#FF84B7"/>
<stop offset="0.46875" stop-color="#EF5997"/>
<stop offset="1" stop-color="#E84287"/>
</linearGradient>
</defs>
</svg>
