<svg width="40" height="41" viewBox="0 0 40 41" fill="none" xmlns="http://www.w3.org/2000/svg">
<path d="M27.5 31.9L25.7 31.4L26.2 33.2C24.4 34.8 22.3 35.8 20 35.8C17.8 35.8 15.7 34.8 13.8 33.2L14.3 31.4L12.5 31.9C9.2 28.3 7 22.7 7 18.4C7 15.8 7.80001 13.3 9.20001 11.2L12.4 12.1L11.5 8.7C13.8 6.7 16.8 5.5 20.1 5.5C23.4 5.5 26.4 6.7 28.7 8.7L27.8 12.1L31 11.2C32.4 13.3 33.2 15.7 33.2 18.4C33 22.7 30.9 28.2 27.5 31.9Z" fill="url(#paint0_linear_511_1722)" stroke="#2C001B" stroke-width="1.5" stroke-miterlimit="10" stroke-linecap="round" stroke-linejoin="round"/>
<path d="M14.5998 22.2C16.4224 22.2 17.8998 21.3045 17.8998 20.2C17.8998 19.0954 16.4224 18.2 14.5998 18.2C12.7773 18.2 11.2998 19.0954 11.2998 20.2C11.2998 21.3045 12.7773 22.2 14.5998 22.2Z" fill="white" stroke="#2C001B" stroke-width="1.5" stroke-miterlimit="10" stroke-linecap="round" stroke-linejoin="round"/>
<path d="M25.4997 22.2C27.3222 22.2 28.7997 21.3045 28.7997 20.2C28.7997 19.0954 27.3222 18.2 25.4997 18.2C23.6772 18.2 22.1997 19.0954 22.1997 20.2C22.1997 21.3045 23.6772 22.2 25.4997 22.2Z" fill="white" stroke="#2C001B" stroke-width="1.5" stroke-miterlimit="10" stroke-linecap="round" stroke-linejoin="round"/>
<path d="M20 30.1C21.6569 30.1 23 29.518 23 28.8C23 28.082 21.6569 27.5 20 27.5C18.3431 27.5 17 28.082 17 28.8C17 29.518 18.3431 30.1 20 30.1Z" fill="white" stroke="#2C001B" stroke-width="1.5" stroke-miterlimit="10" stroke-linecap="round" stroke-linejoin="round"/>
<defs>
<linearGradient id="paint0_linear_511_1722" x1="20.1" y1="5.5" x2="20.1" y2="35.8" gradientUnits="userSpaceOnUse">
<stop stop-color="white"/>
<stop offset="0.49" stop-color="#98E6F5"/>
</linearGradient>
</defs>
</svg>
