<svg width="40" height="41" viewBox="0 0 40 41" fill="none" xmlns="http://www.w3.org/2000/svg">
<path d="M25.5874 7.96521C25.5874 7.96521 24.9362 12.059 23.0753 13.6407C21.2145 15.2224 23.0753 20.2466 23.0753 20.2466C23.0753 20.2466 24.9361 23.2239 20.6563 24.9917C16.3764 26.7595 14.8878 30.5741 12.9339 31.9697C11.3522 33.1793 9.30531 34.3888 7.63058 33.3653C6.97929 32.9932 6.79322 32.0628 7.25842 31.4115C9.4914 28.6203 16.0042 19.5023 16.8416 7.87219" fill="url(#paint0_linear_511_1765)"/>
<path d="M25.5874 7.96521C25.5874 7.96521 24.9362 12.059 23.0753 13.6407C21.2145 15.2224 23.0753 20.2466 23.0753 20.2466C23.0753 20.2466 24.9361 23.2239 20.6563 24.9917C16.3764 26.7595 14.8878 30.5741 12.9339 31.9697C11.3522 33.1793 9.30531 34.3888 7.63058 33.3653C6.97929 32.9932 6.79322 32.0628 7.25842 31.4115C9.4914 28.6203 16.0042 19.5023 16.8416 7.87219" stroke="#2C001B" stroke-width="1.5" stroke-miterlimit="10" stroke-linecap="round" stroke-linejoin="round"/>
<path d="M32.9377 7.5C32.9377 7.5 32.4725 11.5938 30.7978 13.3616C29.123 15.1294 31.1699 19.9675 31.1699 19.9675C31.1699 19.9675 33.2168 22.8517 29.03 24.8056C24.8432 26.8525 23.5406 30.6671 21.6798 32.2488C20.0981 33.5514 18.2373 34.854 16.3765 33.9236" stroke="#2C001B" stroke-width="1.5" stroke-miterlimit="10" stroke-linecap="round" stroke-linejoin="round"/>
<defs>
<linearGradient id="paint0_linear_511_1765" x1="16.2937" y1="7.87219" x2="16.2937" y2="33.7501" gradientUnits="userSpaceOnUse">
<stop stop-color="white"/>
<stop offset="0.49" stop-color="#98E6F5"/>
</linearGradient>
</defs>
</svg>
