<svg width="40" height="41" viewBox="0 0 40 41" fill="none" xmlns="http://www.w3.org/2000/svg">
<path d="M34.7522 22.633C34.7522 22.7199 34.6653 22.7198 34.5785 22.8067C32.928 24.8915 30.6696 26.5419 28.0636 27.6711C25.8051 28.6266 23.1992 29.2347 20.4196 29.2347C17.6399 29.2347 15.0339 28.7135 12.7755 27.6711C10.0827 26.5419 7.82419 24.8915 6.26063 22.8067C6.17376 22.7198 6.17378 22.7199 6.08691 22.633C8.17166 16.2919 13.2098 11.9487 18.3348 12.5567C19.0297 12.6436 19.7246 12.8173 20.3327 13.0779C21.0276 12.8173 21.6356 12.6436 22.3306 12.5567" fill="url(#paint0_linear_511_1741)"/>
<path d="M34.7522 22.633C34.7522 22.7199 34.6653 22.7198 34.5785 22.8067C32.928 24.8915 30.6696 26.5419 28.0636 27.6711C25.8051 28.6266 23.1992 29.2347 20.4196 29.2347C17.6399 29.2347 15.0339 28.7135 12.7755 27.6711C10.0827 26.5419 7.82419 24.8915 6.26063 22.8067C6.17376 22.7198 6.17378 22.7199 6.08691 22.633C8.17166 16.2919 13.2098 11.9487 18.3348 12.5567C19.0297 12.6436 19.7246 12.8173 20.3327 13.0779C21.0276 12.8173 21.6356 12.6436 22.3306 12.5567" stroke="#2C001B" stroke-width="1.5" stroke-miterlimit="10" stroke-linecap="round" stroke-linejoin="round"/>
<path d="M20.4194 13.0779C21.1143 12.8173 21.7224 12.6436 22.5042 12.5567C27.6292 11.9487 32.6673 16.2919 34.7521 22.633C34.7521 22.633 34.7521 22.633 34.5783 22.8067C32.9279 24.8915 30.6694 26.5419 28.0635 27.6711C25.805 28.6266 23.1991 29.2347 20.4194 29.2347" fill="url(#paint1_linear_511_1741)"/>
<path d="M20.4194 13.0779C21.1143 12.8173 21.7224 12.6436 22.5042 12.5567C27.6292 11.9487 32.6673 16.2919 34.7521 22.633C34.7521 22.633 34.7521 22.633 34.5783 22.8067C32.9279 24.8915 30.6694 26.5419 28.0635 27.6711C25.805 28.6266 23.1991 29.2347 20.4194 29.2347" stroke="#2C001B" stroke-width="1.5" stroke-miterlimit="10" stroke-linecap="round" stroke-linejoin="round"/>
<path d="M20.4195 22.633H27.5424H34.6653C24.0678 22.2856 20.3326 17.2474 20.3326 17.2474C20.3326 17.2474 16.5975 22.1987 6 22.633H13.1229H20.4195Z" fill="white" stroke="#2C001B" stroke-width="1.5" stroke-miterlimit="10" stroke-linecap="round" stroke-linejoin="round"/>
<defs>
<linearGradient id="paint0_linear_511_1741" x1="20.4196" y1="12.5" x2="20.4196" y2="29.2347" gradientUnits="userSpaceOnUse">
<stop stop-color="white"/>
<stop offset="0.49" stop-color="#98E6F5"/>
</linearGradient>
<linearGradient id="paint1_linear_511_1741" x1="27.5858" y1="12.5" x2="27.5858" y2="29.2347" gradientUnits="userSpaceOnUse">
<stop stop-color="white"/>
<stop offset="0.49" stop-color="#98E6F5"/>
</linearGradient>
</defs>
</svg>
