<svg width="40" height="41" viewBox="0 0 40 41" fill="none" xmlns="http://www.w3.org/2000/svg">
<path d="M19.6055 31.65H29.6055V17.05C29.6055 15.55 28.4055 14.35 26.9055 14.35H22.6055C21.4055 14.35 20.3055 15.15 20.0055 16.35" fill="white"/>
<path d="M19.6055 31.65H29.6055V17.05C29.6055 15.55 28.4055 14.35 26.9055 14.35H22.6055C21.4055 14.35 20.3055 15.15 20.0055 16.35" stroke="#242424" stroke-width="1.5" stroke-miterlimit="10" stroke-linecap="round" stroke-linejoin="round"/>
<path d="M27.8054 14.35H21.5054V8.95C23.6054 8.35 25.7054 8.35 27.8054 8.95V14.35Z" fill="url(#paint0_linear_508_1510)" stroke="#242424" stroke-width="1.5" stroke-miterlimit="10" stroke-linecap="round" stroke-linejoin="round"/>
<path d="M19.5054 33.3501H10.8054L10.0054 17.8501C9.90541 16.2501 11.2054 14.9501 12.7054 14.9501H17.6054C19.2054 14.9501 20.4054 16.2501 20.3054 17.8501L19.5054 33.3501Z" fill="url(#paint1_linear_508_1510)" stroke="#242424" stroke-width="1.5" stroke-miterlimit="10" stroke-linecap="round" stroke-linejoin="round"/>
<path d="M18.0054 11.05H12.3054V15.05H18.0054V11.05Z" fill="white" stroke="#242424" stroke-width="1.5" stroke-miterlimit="10" stroke-linecap="round" stroke-linejoin="round"/>
<path d="M17.0054 29.1501H13.5054L12.5054 19.55H17.9054L17.0054 29.1501Z" fill="white" stroke="#242424" stroke-width="1.5" stroke-miterlimit="10" stroke-linecap="round" stroke-linejoin="round"/>
<defs>
<linearGradient id="paint0_linear_508_1510" x1="24.6554" y1="8.5" x2="24.6554" y2="14.35" gradientUnits="userSpaceOnUse">
<stop stop-color="white"/>
<stop offset="0.49" stop-color="#98E6F5"/>
</linearGradient>
<linearGradient id="paint1_linear_508_1510" x1="15.1556" y1="14.9501" x2="15.1556" y2="33.3501" gradientUnits="userSpaceOnUse">
<stop stop-color="white"/>
<stop offset="0.49" stop-color="#98E6F5"/>
</linearGradient>
</defs>
</svg>
