<svg width="1153" height="390" viewBox="0 0 1153 390" fill="none" xmlns="http://www.w3.org/2000/svg">
<rect width="1153" height="390" fill="white"/>
<path d="M57.5156 117.564V185.23H127.213V200.846H57.5156V284H41.1387V101.949H143.59V117.564H57.5156ZM255.182 284L205.797 206.305H183.326V284H166.949V101.949H224.713C230.891 101.949 236.689 103.134 242.105 105.504C247.522 107.789 252.262 110.963 256.324 115.025C260.387 119.088 263.561 123.87 265.846 129.371C268.215 134.788 269.4 140.585 269.4 146.764V161.49C269.4 167.669 268.215 173.508 265.846 179.01C263.561 184.426 260.387 189.166 256.324 193.229C252.262 197.291 247.522 200.507 242.105 202.877C236.689 205.162 230.891 206.305 224.713 206.305L274.098 284H255.182ZM253.023 146.764C253.023 142.701 252.262 138.935 250.738 135.465C249.215 131.91 247.141 128.821 244.518 126.197C241.894 123.489 238.805 121.373 235.25 119.85C231.78 118.326 228.014 117.564 223.951 117.564H183.326V190.689H223.951C228.014 190.689 231.78 189.928 235.25 188.404C238.805 186.881 241.894 184.807 244.518 182.184C247.141 179.475 249.215 176.386 250.738 172.916C252.262 169.361 253.023 165.553 253.023 161.49V146.764ZM305.455 284V101.949H407.906V117.564H321.832V185.23H391.529V200.846H321.832V268.385H407.906V284H305.455ZM539.049 241.852C539.049 248.03 537.779 253.827 535.24 259.244C532.786 264.661 529.443 269.4 525.211 273.463C521.064 277.525 516.197 280.742 510.611 283.111C505.11 285.396 499.27 286.539 493.092 286.539H480.016C473.837 286.539 467.955 285.396 462.369 283.111C456.868 280.742 452.001 277.525 447.77 273.463C443.622 269.4 440.279 264.661 437.74 259.244C435.286 253.827 434.059 248.03 434.059 241.852V234.615L450.436 231.949V241.852C450.436 245.914 451.24 249.723 452.848 253.277C454.54 256.747 456.783 259.837 459.576 262.545C462.369 265.169 465.585 267.242 469.225 268.766C472.949 270.289 476.842 271.051 480.904 271.051H492.33C496.393 271.051 500.243 270.289 503.883 268.766C507.522 267.242 510.738 265.169 513.531 262.545C516.324 259.837 518.525 256.747 520.133 253.277C521.826 249.723 522.672 245.914 522.672 241.852V236.393C522.672 230.13 521.445 224.924 518.99 220.777C516.536 216.63 513.277 213.118 509.215 210.24C505.152 207.278 500.54 204.781 495.377 202.75C490.299 200.719 485.051 198.688 479.635 196.656C474.218 194.625 468.928 192.382 463.766 189.928C458.688 187.473 454.117 184.426 450.055 180.787C445.992 177.063 442.734 172.535 440.279 167.203C437.825 161.871 436.598 155.312 436.598 147.525V144.098C436.598 137.919 437.74 132.122 440.025 126.705C442.395 121.288 445.611 116.549 449.674 112.486C453.736 108.424 458.476 105.25 463.893 102.965C469.394 100.595 475.234 99.4102 481.412 99.4102H493.092C499.27 99.4102 505.068 100.595 510.484 102.965C515.901 105.25 520.641 108.424 524.703 112.486C528.766 116.549 531.939 121.288 534.225 126.705C536.594 132.122 537.779 137.919 537.779 144.098V148.795L521.402 151.461V144.098C521.402 140.035 520.641 136.269 519.117 132.799C517.594 129.244 515.52 126.155 512.896 123.531C510.273 120.908 507.184 118.834 503.629 117.311C500.159 115.787 496.393 115.025 492.33 115.025H482.174C478.111 115.025 474.303 115.787 470.748 117.311C467.278 118.834 464.189 120.908 461.48 123.531C458.857 126.155 456.783 129.244 455.26 132.799C453.736 136.269 452.975 140.035 452.975 144.098V147.525C452.975 153.365 454.202 158.274 456.656 162.252C459.111 166.23 462.369 169.658 466.432 172.535C470.494 175.328 475.064 177.783 480.143 179.898C485.305 181.93 490.595 184.046 496.012 186.246C501.428 188.362 506.676 190.732 511.754 193.355C516.917 195.895 521.529 199.068 525.592 202.877C529.654 206.601 532.913 211.171 535.367 216.588C537.822 222.005 539.049 228.606 539.049 236.393V241.852ZM660.416 284V200.846H590.719V284H574.342V101.949H590.719V185.23H660.416V101.949H676.793V284H660.416ZM830.66 284V159.205L829.518 166.949L787.242 284H778.609L735.953 166.949L734.938 159.205V284H718.561V101.949H727.066L782.291 251.246L782.799 257.975L783.307 251.246L838.404 101.949H847.037V284H830.66ZM956.979 241.598H899.342L887.408 284H870.396L923.717 101.949H932.35L985.924 284H969.039L956.979 241.598ZM903.785 225.982H952.662L928.668 142.066L928.16 135.338L927.652 142.066L903.785 225.982ZM1103.1 284L1027.18 151.461L1025.66 143.59V284H1009.28V101.949H1017.79L1093.71 234.615L1095.36 242.359V101.949H1111.73V284H1103.1Z" fill="black"/>
</svg>
